<?xml version="1.0" encoding="utf-8"?>
<!-- Generator: Adobe Illustrator 16.0.0, SVG Export Plug-In . SVG Version: 6.00 Build 0)  -->
<!DOCTYPE svg PUBLIC "-//W3C//DTD SVG 1.1//EN" "http://www.w3.org/Graphics/SVG/1.1/DTD/svg11.dtd">
<svg version="1.1" id="Calque_1" xmlns="http://www.w3.org/2000/svg" xmlns:xlink="http://www.w3.org/1999/xlink" x="0px" y="0px"
	 width="24px" height="24px" viewBox="0 0 24 24" enable-background="new 0 0 24 24" xml:space="preserve">
<g>
	<path fill="#FFFFFF" d="M12,5c4.687,0,8.5,3.813,8.5,8.5S16.687,22,12,22s-8.5-3.813-8.5-8.5S7.313,5,12,5 M12,3
		C6.201,3,1.5,7.701,1.5,13.5S6.201,24,12,24s10.5-4.701,10.5-10.5S17.799,3,12,3L12,3z"/>
</g>
<line fill="none" stroke="#FFFFFF" stroke-width="2" stroke-linecap="round" stroke-miterlimit="10" x1="12" y1="7.5" x2="12" y2="13.5"/>
<line fill="none" stroke="#FFFFFF" stroke-width="2" stroke-linecap="round" stroke-miterlimit="10" x1="9" y1="1" x2="15" y2="1"/>
<line fill="none" stroke="#FFFFFF" stroke-width="2" stroke-linecap="round" stroke-miterlimit="10" x1="19.425" y1="3.247" x2="22.253" y2="6.075"/>
<line fill="none" stroke="#FFFFFF" stroke-width="2" stroke-linecap="round" stroke-miterlimit="10" x1="1.747" y1="6.075" x2="4.575" y2="3.247"/>
</svg>
